# xmcd
#
# Track frame offsets: 
#        182
#        12277
#        23587
#        35850
#        47592
#        59305
#        71132
#        83895
#        96097
#        110430
#        123260
#        134497
#        146955
#        157977
#        169720
#        182780
#        194240
#        206790
#        218700
#        232550
#        244535
#        257350
#
# Disc length: 3628 seconds
#
# Revision: 0
# Processed by: cddbd v1.5.2PL0 Copyright (c) Steve Scherf et al.
# Submitted via: ExactAudioCopy v0.95b4
#
DISCID=370e2a16
DTITLE=Big Jay McNeely - Classics 1948-1950
DYEAR=2001
DGENRE=Blues
TTITLE0=Wild Wig
TTITLE1=Sunday Dinner
TTITLE2=Deacon's Groove (Cool Blood)
TTITLE3=Man Eater
TTITLE4=California Hop
TTITLE5=Cherry Smash
TTITLE6=The Deacon's Hop
TTITLE7=Artie's Jump
TTITLE8=Midnight Dreams
TTITLE9=Blow Big Jay
TTITLE10=Boogie In Front
TTITLE11=Willie The Cool Cat
TTITLE12=Gingercake
TTITLE13=K and H Boogie
TTITLE14=Roadhouse Boogie
TTITLE15=Hoppin' With Hunter
TTITLE16=Tandelayo
TTITLE17=Junie-Flip
TTITLE18=Jay's Frantic
TTITLE19=Let's Split
TTITLE20=Real Crazy Cool
TTITLE21=Deacon's Blowout
EXTD=
EXTT0=
EXTT1=
EXTT2=
EXTT3=
EXTT4=
EXTT5=
EXTT6=
EXTT7=
EXTT8=
EXTT9=
EXTT10=
EXTT11=
EXTT12=
EXTT13=
EXTT14=
EXTT15=
EXTT16=
EXTT17=
EXTT18=
EXTT19=
EXTT20=
EXTT21=
PLAYORDER=
